<svg width="37" height="36" viewBox="0 0 37 36" fill="none" xmlns="http://www.w3.org/2000/svg">
<path fill-rule="evenodd" clip-rule="evenodd" d="M21.5986 30.9487C21.1902 32.1737 20.0438 33 18.7525 33H16.8337C15.1768 33 13.8337 31.6568 13.8337 30L13.8337 24H5.7607C3.53055 24 2.08008 21.653 3.07743 19.6583L9.07743 7.65835C9.5856 6.642 10.6244 5.99999 11.7607 5.99999L21.9066 5.99999C23.0429 5.99999 24.0817 6.642 24.5899 7.65835L26.8974 12.2734C27.2533 12.9851 27.3118 13.809 27.0602 14.5638L21.5986 30.9487Z" fill="white"/>
<path fill-rule="evenodd" clip-rule="evenodd" d="M28.3593 23.923C27.5734 23.661 27.1487 22.8116 27.4106 22.0257L30.0177 14.2045C30.1435 13.8271 30.1142 13.4152 29.9363 13.0594L27.492 8.17081C27.1215 7.42984 27.4219 6.52884 28.1628 6.15835C28.9038 5.78787 29.8048 6.08821 30.1753 6.82917L32.6196 11.7177C33.1533 12.7852 33.2411 14.021 32.8637 15.1532L30.2567 22.9743C29.9947 23.7602 29.1452 24.185 28.3593 23.923Z" fill="white"/>
</svg>
